<svg xmlns="http://www.w3.org/2000/svg" viewBox="0 0 180 44" role="img" aria-label="Folio">
  <title>Folio</title>
  <g fill="none" stroke="currentColor" stroke-linejoin="round" stroke-linecap="round">
    <path d="M4 8 Q4 5.5 6.5 5.5 L17 5.5 Q20 6.5 21 9 L21 36 Q20 38.5 17 38.5 L6.5 38.5 Q4 38.5 4 36 Z" stroke-width="1.6"/>
    <path d="M21 9 Q22 6.5 25 5.5 L35.5 5.5 Q38 5.5 38 8 L38 36 Q38 38.5 35.5 38.5 L25 38.5 Q22 38.5 21 36" stroke-width="1.6"/>
    <line x1="21" y1="9" x2="21" y2="36" stroke-width="0.7" opacity="0.55"/>
    <line x1="8" y1="13" x2="16" y2="13" stroke-width="0.7" opacity="0.7"/>
    <line x1="8" y1="17" x2="14" y2="17" stroke-width="0.7" opacity="0.7"/>
    <line x1="26" y1="13" x2="34" y2="13" stroke-width="0.7" opacity="0.7"/>
    <line x1="26" y1="17" x2="32" y2="17" stroke-width="0.7" opacity="0.7"/>
    <circle cx="21" cy="22" r="1.1" fill="currentColor" stroke="none" opacity="0.8"/>
  </g>
  <text x="48" y="32" font-family="'Playfair Display', Georgia, serif" font-size="30" font-weight="800" letter-spacing="0.02em" fill="currentColor">F<tspan font-style="italic" font-weight="400">olio</tspan></text>
</svg>
